<svg xmlns="http://www.w3.org/2000/svg" xmlns:xlink="http://www.w3.org/1999/xlink" fill="none" version="1.1" width="74" height="40" viewBox="0 0 74 40"><defs><clipPath id="master_svg0_2_254"><rect x="0" y="0" width="74" height="40" rx="0"/></clipPath></defs><g><g clip-path="url(#master_svg0_2_254)"><g><path d="M20.184,9.08Q20.928,9.224,21.3,9.584Q21.672,9.944,21.672,10.424Q21.672,11.216,21.228,11.576Q20.784,11.936,19.824,11.864Q17.664,11.696,16.452,11.636Q15.24,11.576,13.272,11.552Q12.384,15.968,11.64,20.432Q11.376,22.064,11.088,24.212Q10.8,26.36,10.704,27.68Q10.656,28.376,10.128,28.748Q9.6,29.12,8.856,29.12Q8.064,29.12,7.632,28.736Q7.2,28.352,7.2,27.728Q7.2,27.152,7.38,25.82Q7.56,24.488,7.8,23.024Q8.064,21.56,8.208,20.48Q8.472,18.656,8.808,16.856Q9.144,15.056000000000001,9.48,13.448Q9.552,13.088,9.648,12.62Q9.744,12.152,9.864,11.576Q7.512,11.648,6.168,11.96Q4.824,12.272,4.26,12.836Q3.696,13.4,3.696,14.288Q3.696,15.104,4.176,15.847999999999999Q4.272,16.016,4.272,16.208Q4.272,16.664,3.732,17.06Q3.192,17.456,2.616,17.456Q2.208,17.456,1.944,17.216Q1.464,16.808,1.152,16.052Q0.84,15.296,0.84,14.335999999999999Q0.84,12.296,2.172,11.06Q3.504,9.824,6.228,9.248Q8.952,8.672,13.224,8.672Q15.864,8.672,17.436,8.768Q19.008,8.864,20.184,9.08ZM18.864,29.12Q17.952,29.12,17.58,28.16Q17.208,27.2,17.208,25.088Q17.208,21.968,18.096,19.16Q18.312,18.464,18.804,18.14Q19.296,17.816,20.184,17.816Q20.664,17.816,20.856,17.936Q21.048,18.056,21.048,18.392Q21.048,18.776,20.688,20.12Q20.448,21.08,20.304,21.8Q20.16,22.52,20.064,23.576Q20.856,21.512,21.84,20.216Q22.824,18.92,23.772,18.368Q24.72,17.816,25.512,17.816Q27.072,17.816,27.072,19.376Q27.072,19.688,26.856,20.888Q26.664,21.848,26.664,22.088Q26.664,22.928,27.264,22.928Q27.936,22.928,28.992,21.872Q29.304,21.56,29.64,21.56Q29.952,21.56,30.132,21.836Q30.312,22.112,30.312,22.568Q30.312,23.456,29.832,23.96Q29.16,24.656,28.26,25.148Q27.36,25.64,26.352,25.64Q25.08,25.64,24.42,24.992Q23.76,24.344,23.76,23.24Q23.76,22.88,23.832,22.52Q23.88,22.04,23.88,21.872Q23.88,21.488,23.616,21.488Q23.256,21.488,22.668,22.292Q22.08,23.096,21.504,24.416Q20.928,25.736,20.568,27.2Q20.304,28.328,19.956,28.724Q19.608,29.12,18.864,29.12ZM40.368,23.696Q40.68,23.696,40.86,23.996Q41.04,24.296,41.04,24.752Q41.04,25.304,40.872,25.616Q40.704,25.928,40.344,26.168L35.736,29.264Q34.824,34.232,33.348,37.076Q31.872,39.92,29.592,39.92Q28.368,39.92,27.6,39.164Q26.832,38.408,26.832,37.184Q26.832,36.056,27.348,34.88Q27.864,33.704,29.268,32.18Q30.672,30.656,33.24,28.688L33.312,28.136Q33.48,27.248,33.696,25.592Q33.216,27.32,32.352,28.22Q31.488,29.12,30.528,29.12Q29.448,29.12,28.764,28.124Q28.08,27.128,28.08,25.64Q28.08,23.84,28.32,22.34Q28.56,20.84,29.112,19.16Q29.352,18.44,29.784,18.128Q30.216,17.816,31.152,17.816Q31.68,17.816,31.884,17.984Q32.088,18.152,32.088,18.488Q32.088,18.68,31.824,19.784Q31.584,20.672,31.44,21.392Q31.248,22.376,31.104,23.276Q30.96,24.176,30.96,24.752Q30.96,25.664,31.464,25.664Q31.824,25.664,32.364,24.944Q32.904,24.224,33.516,22.76Q34.128,21.296,34.704,19.16Q34.896,18.44,35.292,18.128Q35.688,17.816,36.48,17.816Q37.032,17.816,37.248,17.96Q37.464,18.104,37.464,18.44Q37.464,19.04,36.84,22.568L36.216,26.432Q38.064,25.04,39.816,23.888Q40.128,23.696,40.368,23.696ZM29.856,37.592Q30.456,37.592,31.2,36.2Q31.944,34.808,32.688,31.567999999999998Q30.84,33.128,30.012,34.412Q29.184,35.696,29.184,36.656Q29.184,37.064,29.34,37.328Q29.496,37.592,29.856,37.592ZM47.544,29.12Q45.408,29.12,43.692,28.16Q41.976,27.2,40.968,25.34Q39.96,23.48,39.96,20.888Q39.96,17.24,41.292,14.456Q42.624,11.672,44.916,10.16Q47.208,8.648,49.992,8.648Q52.128,8.648,53.844,9.608Q55.56,10.568,56.568,12.428Q57.576,14.288,57.576,16.88Q57.576,20.528,56.244,23.312Q54.912,26.096,52.62,27.608Q50.328,29.12,47.544,29.12ZM47.784,26.288Q49.656,26.288,51.084,25.136Q52.512,23.984,53.28,21.932Q54.048,19.88,54.048,17.288Q54.048,14.431999999999999,52.848,12.956Q51.648,11.48,49.752,11.48Q47.904,11.48,46.488,12.62Q45.072,13.76,44.28,15.812000000000001Q43.488,17.864,43.488,20.48Q43.488,23.336,44.688,24.812Q45.888,26.288,47.784,26.288ZM60.624,29.12Q59.712,29.12,59.34,28.16Q58.968,27.2,58.968,25.088Q58.968,21.968,59.856,19.16Q60.072,18.464,60.564,18.14Q61.056,17.816,61.944,17.816Q62.424,17.816,62.616,17.936Q62.808,18.056,62.808,18.392Q62.808,18.776,62.448,20.12Q62.208,21.08,62.064,21.8Q61.92,22.52,61.824,23.576Q62.616,21.512,63.6,20.216Q64.584,18.92,65.532,18.368Q66.48,17.816,67.272,17.816Q68.832,17.816,68.832,19.376Q68.832,20.312,68.304,22.76Q67.848,24.848,67.848,25.52Q67.848,26.48,68.544,26.48Q69.024,26.48,69.684,25.892Q70.344,25.304,71.448,23.984Q71.736,23.648,72.096,23.648Q72.408,23.648,72.588,23.936Q72.768,24.224,72.768,24.728Q72.768,25.688,72.312,26.216Q71.28,27.488,70.092,28.304Q68.904,29.12,67.392,29.12Q66.168,29.12,65.544,28.412Q64.92,27.704,64.92,26.36Q64.92,25.688,65.256,23.96Q65.568,22.448,65.568,21.872Q65.568,21.488,65.304,21.488Q64.992,21.488,64.428,22.292Q63.864,23.096,63.276,24.416Q62.688,25.736,62.328,27.2Q62.064,28.328,61.716,28.724Q61.368,29.12,60.624,29.12Z" fill="#1B9AF5" fill-opacity="1" style="mix-blend-mode:passthrough"/></g></g></g></svg>